<svg width="15.428467" height="15.428711" viewBox="0 0 15.4285 15.4287" fill="none" xmlns="http://www.w3.org/2000/svg" xmlns:xlink="http://www.w3.org/1999/xlink">
	<desc>
			Created with Pixso.
	</desc>
	<defs/>
	<path id="fa-facebook-square" d="M2.89 6.96e-5L12.53 6.96e-5C14.13 6.96e-5 15.42 1.29 15.42 2.89L15.42 12.53C15.42 14.13 14.13 15.42 12.53 15.42L10.64 15.42L10.64 9.45L12.64 9.45L12.94 7.12L10.64 7.12L10.64 5.63C10.64 4.96 10.82 4.51 11.8 4.51L13.02 4.5L13.02 2.42C12.81 2.39 12.08 2.33 11.24 2.33C9.46 2.33 8.23 3.41 8.23 5.4L8.23 7.12L6.22 7.12L6.22 9.45L8.23 9.45L8.23 15.42L2.89 15.42C1.29 15.42 0 14.13 0 12.53L0 2.89C0 1.29 1.29 6.96e-5 2.89 6.96e-5Z" fill="#1E0E62" fill-opacity="1.000000" fill-rule="evenodd"/>
</svg>
