<svg width="23.142822" height="14.725586" viewBox="0 0 23.1428 14.7256" fill="none" xmlns="http://www.w3.org/2000/svg" xmlns:xlink="http://www.w3.org/1999/xlink">
	<desc>
			Created with Pixso.
	</desc>
	<defs/>
	<path id="fa-google-plus" d="M14.31 6.3C14.38 6.67 14.43 7.05 14.43 7.53C14.43 11.74 11.61 14.72 7.36 14.72C3.29 14.72 0 11.43 0 7.36C0 3.29 3.29 6.96e-5 7.36 6.96e-5C9.35 6.96e-5 11 0.72 12.29 1.92L10.29 3.84C9.75 3.32 8.79 2.71 7.36 2.71C4.85 2.71 2.8 4.79 2.8 7.36C2.8 9.93 4.85 12.01 7.36 12.01C10.27 12.01 11.37 9.91 11.54 8.83L7.36 8.83L7.36 6.3L14.31 6.3ZM21.04 6.3L23.14 6.3L23.14 8.41L21.04 8.41L21.04 10.51L18.93 10.51L18.93 8.41L16.83 8.41L16.83 6.3L18.93 6.3L18.93 4.2L21.04 4.2L21.04 6.3Z" fill="#1E0E62" fill-opacity="1.000000" fill-rule="evenodd"/>
</svg>
