<svg width="15.830322" height="12.857422" viewBox="0 0 15.8303 12.8574" fill="none" xmlns="http://www.w3.org/2000/svg" xmlns:xlink="http://www.w3.org/1999/xlink">
	<desc>
			Created with Pixso.
	</desc>
	<defs/>
	<path id="fa-twitter" d="M13.96 2.02C14.61 1.95 15.24 1.77 15.83 1.52C15.38 2.16 14.83 2.74 14.2 3.2C14.21 3.34 14.21 3.48 14.21 3.62C14.21 7.91 10.94 12.85 4.98 12.85C3.14 12.85 1.43 12.32 6.97e-5 11.4C0.26 11.43 0.51 11.44 0.78 11.44C2.3 11.44 3.69 10.92 4.81 10.05C3.38 10.02 2.18 9.09 1.77 7.8C1.97 7.83 2.17 7.85 2.39 7.85C2.68 7.85 2.97 7.81 3.24 7.74C1.75 7.44 0.64 6.13 0.64 4.56L0.64 4.52C1.07 4.76 1.57 4.91 2.1 4.93C1.23 4.34 0.66 3.35 0.66 2.23C0.66 1.62 0.82 1.07 1.1 0.59C2.7 2.56 5.1 3.84 7.79 3.98C7.74 3.74 7.71 3.49 7.71 3.24C7.71 1.45 9.16 0 10.95 0C11.89 0 12.73 0.39 13.32 1.02C14.06 0.88 14.76 0.61 15.38 0.24C15.14 0.99 14.63 1.62 13.96 2.02Z" fill="#1E0E62" fill-opacity="1.000000" fill-rule="evenodd"/>
</svg>
